<?xml version="1.0" encoding="UTF-8"?>
<svg enable-background="new 0 0 96 96" version="1.1" viewBox="0 0 96 96" xml:space="preserve" xmlns="http://www.w3.org/2000/svg" xmlns:xlink="http://www.w3.org/1999/xlink"><style/><defs><linearGradient id="b" x1="50.747" x2="49.827" y1="31.124" y2="65.44" gradientUnits="userSpaceOnUse"><stop stop-color="#920000" offset="0"/><stop stop-color="#fc0000" offset="1"/></linearGradient><linearGradient id="a" x1="50.975" x2="50.281" y1="8.26" y2="87.811" gradientUnits="userSpaceOnUse"><stop stop-color="#e9e9e9" offset="0"/><stop stop-color="#fcfcfc" offset="1"/></linearGradient></defs><path d="m88 49c0 29.635-10.361 40-40 40-29.633 0-40-10.365-40-40 0-29.633 10.367-40 40-40 29.637 0 40 10.367 40 40z" enable-background="new    " opacity=".28109"/><path d="m88 48c-0.08282 10.463-0.91305 21.981-8.0782 30.26-7.0319 7.6579-17.997 9.3228-27.88 9.6709-11.299 0.20524-23.664-0.014003-33.148-7.0112-8.1275-6.5314-10.406-17.534-10.715-27.445-0.50451-11.207-0.21415-23.225 5.7821-33.095 5.7157-8.458 16.303-11.488 25.999-12.049 10.163-0.8035 20.68-0.45417 30.383 2.9163 7.5663 2.9119 13.515 9.5184 15.402 17.431 1.8696 6.2539 2.1935 12.838 2.2536 19.322z" fill="url(#a)"/><path d="m65 47.999c-9.6667 5.6668-19.333 11.334-29 17 0-11.334-1e-6 -22.667-1e-6 -34.001 9.6667 5.6668 19.333 11.334 29 17z" fill="url(#b)" stroke-width="1.1689"/></svg>
