<svg width="96px" height="96px" enable-background="new 0 0 96 96" version="1.1" viewBox="0 0 96 96" xml:space="preserve" xmlns="http://www.w3.org/2000/svg" xmlns:xlink="http://www.w3.org/1999/xlink"><defs><linearGradient id="shn" x1="103.68" x2="103.68" y1="-1873.8" y2="-1794.8" gradientTransform="matrix(1 0 0 -1 -55.675 -1786.8)" gradientUnits="userSpaceOnUse"><stop stop-color="#920000" offset="0"/><stop stop-color="#fc0000" offset="1"/></linearGradient></defs><path d="m88 49c0 29.635-10.361 40-40 40-29.633 0-40-10.365-40-40 0-29.633 10.367-40 40-40 29.637 0 40 10.367 40 40z" enable-background="new    " opacity=".28109"/><g><path d="m88 48c0 29.635-10.361 40-40 40-29.633 0-40-10.365-40-40 0-29.633 10.367-40 40-40 29.637 0 40 10.367 40 40z" fill="url(#shn)"/><path d="m48 8c-29.633 0-40 10.367-40 40 0 29.635 10.367 40 40 40 29.639 0 40-10.365 40-40 0-29.633-10.363-40-40-40zm0 79c-29.158 0-39-9.842-39-39s9.842-39 39-39c29.16 0 39 9.842 39 39s-9.84 39-39 39z" enable-background="new    " fill="#fc0000" opacity=".15"/><path transform="matrix(0 -1.1778 1.16 0 2.94 102.3)" d="m46.104 53.5-14.434-25 28.868-1e-6z" fill="#fff"/></g></svg>
