<svg width="96px" height="96px" enable-background="new 0 0 96 96" version="1.1" viewBox="0 0 96 96" xml:space="preserve" xmlns="http://www.w3.org/2000/svg"><style/><defs><linearGradient id="a" x1="103.68" x2="103.68" y1="-1873.8" y2="-1794.8" gradientTransform="matrix(1 0 0 -1 -55.675 -1786.8)" gradientUnits="userSpaceOnUse"><stop stop-color="#920000" offset="0"/><stop stop-color="#fc0000" offset="1"/></linearGradient></defs><path d="m88 49c0 29.635-10.361 40-40 40-29.633 0-40-10.365-40-40 0-29.633 10.367-40 40-40 29.637 0 40 10.367 40 40z" enable-background="new    " opacity=".28109"/><path d="m88 48c0 29.635-10.361 40-40 40-29.633 0-40-10.365-40-40 0-29.633 10.367-40 40-40 29.637 0 40 10.367 40 40z" fill="url(#a)"/><path d="m48 8c-29.633 0-40 10.367-40 40 0 29.635 10.367 40 40 40 29.639 0 40-10.365 40-40 0-29.633-10.363-40-40-40zm0 79c-29.158 0-39-9.842-39-39s9.842-39 39-39c29.16 0 39 9.842 39 39s-9.84 39-39 39z" enable-background="new    " fill="#fc0000" opacity=".15"/><path d="m50.91 30.762h19.055v6.4688h-6.2812v28.008h-6.6562v-28.008h-6.1172v-6.4688zm-28.875 0h7.0547l6.4219 12.375c2.125-4.125 4.25-8.25 6.375-12.375h6.9609l-10.078 19.547v14.93h-6.6094v-14.93c-3.375-6.5156-6.75-13.031-10.125-19.547z" fill="#fff"/></svg>
