<?xml version="1.0" encoding="UTF-8"?>
<svg enable-background="new 0 0 96 96" version="1.1" viewBox="0 0 96 96" xml:space="preserve" xmlns="http://www.w3.org/2000/svg"><style/><defs><linearGradient id="a" x1="48" x2="48" y1="87" y2="8" gradientUnits="userSpaceOnUse"><stop stop-color="#920000" offset="0"/><stop stop-color="#fc0000" offset="1"/></linearGradient></defs><path d="m88 49c0 29.635-10.361 40-40 40-29.633 0-40-10.365-40-40 0-29.633 10.367-40 40-40 29.637 0 40 10.367 40 40z" enable-background="new    " opacity=".28109"/><path d="m88 48c-0.099782 10.459-0.89565 21.992-8.0782 30.26-7.0197 7.6783-18.002 9.3027-27.88 9.6709-11.151 0.19318-23.296-0.003214-32.763-6.711-8.2995-6.331-10.701-17.335-11.075-27.224-0.53723-11.105-0.30782-22.95 5.2854-32.888 4.9002-7.9021 14.184-11.558 23.095-12.424 10.259-1.2441 20.836-1.0014 30.873 1.5715 7.818 2.2169 14.83 7.8937 17.392 15.776 2.6627 6.9868 3.0852 14.568 3.1501 21.969z" fill="url(#a)"/><path d="m48 8c-29.633 0-40 10.367-40 40 0 29.635 10.367 40 40 40 29.639 0 40-10.365 40-40 0-29.633-10.363-40-40-40zm0 79c-29.158 0-39-9.842-39-39s9.842-39 39-39c29.16 0 39 9.842 39 39s-9.84 39-39 39z" enable-background="new    " fill="#fc0000" opacity=".15"/><g fill="#fff" aria-label="JTube"><path d="m52.271 38.947v17.672h3.1758v-1.3477c0.625 0.59375 1.2539 1.0234 1.8867 1.2891 0.63281 0.25781 1.3164 0.38672 2.0508 0.38672 1.6484 0 3.0742-0.63672 4.2773-1.9102 1.2031-1.2812 1.8047-2.8711 1.8047-4.7695 0-1.9688-0.58203-3.582-1.7461-4.8398-1.1641-1.2578-2.5781-1.8867-4.2422-1.8867-0.76563 0-1.4844 0.14453-2.1562 0.43359-0.67188 0.28906-1.2969 0.72266-1.875 1.3008v-6.3281zm-31.359 0.43359v12.059c0 1.0078-0.08594 1.6602-0.25781 1.957-0.17188 0.29688-0.43359 0.44531-0.78516 0.44531-0.34375 0-0.69922-0.10156-1.0664-0.30469-0.36719-0.20312-0.8125-0.60156-1.3359-1.1953l-2.3672 2.2148c1.3359 1.6641 2.9531 2.4961 4.8516 2.4961 0.92969 0 1.7266-0.21484 2.3906-0.64453 0.66406-0.4375 1.1406-1.0234 1.4297-1.7578 0.28906-0.73438 0.43359-2.0117 0.43359-3.832v-11.438zm5.543 0v3.2344h3.0586v14.004h3.3281v-14.004h3.1406v-3.2344zm47.66 4.1602c-1.8906 0-3.4648 0.64453-4.7227 1.9336-1.25 1.2812-1.875 2.8945-1.875 4.8398 0 1.8984 0.62891 3.4805 1.8867 4.7461 1.2578 1.2578 2.8867 1.8867 4.8867 1.8867 1.2891 0 2.4023-0.22656 3.3398-0.67969 0.9375-0.46094 1.7422-1.168 2.4141-2.1211l-2.6953-1.2656c-0.85937 0.83594-1.8867 1.2539-3.082 1.2539-1 0-1.8242-0.26562-2.4727-0.79688-0.64062-0.53906-1.0352-1.2617-1.1836-2.168h10.277l0.01172-0.60938c0-2.1094-0.62891-3.8047-1.8867-5.0859-1.2578-1.2891-2.8906-1.9336-4.8984-1.9336zm-36.246 0.32812v5.3086c0 2.0391 0.125 3.4453 0.375 4.2188 0.35156 1.1172 0.95703 1.9883 1.8164 2.6133 0.86719 0.625 2 0.9375 3.3984 0.9375 1.2891 0 2.3516-0.26562 3.1875-0.79688 0.83594-0.53906 1.4688-1.3086 1.8984-2.3086 0.35156-0.82031 0.52734-2.3438 0.52734-4.5703v-5.4023h-3.2109v6.2461c0 1.2031-0.06641 1.9883-0.19922 2.3555-0.17969 0.49219-0.45703 0.86719-0.83203 1.125-0.36719 0.25-0.81641 0.375-1.3477 0.375s-0.98047-0.12891-1.3477-0.38672c-0.35938-0.25781-0.62109-0.61719-0.78516-1.0781-0.16406-0.46875-0.24609-1.3008-0.24609-2.4961v-6.1406zm36.398 2.3789c0.82031 0 1.5391 0.22266 2.1562 0.66797 0.625 0.44531 1.043 1.0234 1.2539 1.7344h-6.9258c0.35938-0.78906 0.75-1.3398 1.1719-1.6523 0.67188-0.5 1.4531-0.75 2.3438-0.75zm-15.457 0.24609c1 0 1.8281 0.35156 2.4844 1.0547 0.65625 0.69531 0.98438 1.5898 0.98438 2.6836 0 1.1016-0.33594 2.0078-1.0078 2.7188-0.66406 0.71094-1.4844 1.0664-2.4609 1.0664-1.0078 0-1.8438-0.34766-2.5078-1.043-0.66406-0.70312-0.99609-1.6211-0.99609-2.7539 0-1.1094 0.33203-2.0078 0.99609-2.6953 0.66406-0.6875 1.5-1.0312 2.5078-1.0312z"/></g></svg>
